<?xml version="1.0" encoding="UTF-8" standalone="no"?>
<!-- Created with Inkscape (http://www.inkscape.org/) -->

<svg
   width="1300"
   height="300"
   viewBox="0 0 343.95832 79.375"
   version="1.1"
   id="svg7389"
   inkscape:version="1.2.2 (732a01da63, 2022-12-09)"
   sodipodi:docname="echoreadertextrevised.svg"
   xmlns:inkscape="http://www.inkscape.org/namespaces/inkscape"
   xmlns:sodipodi="http://sodipodi.sourceforge.net/DTD/sodipodi-0.dtd"
   xmlns="http://www.w3.org/2000/svg"
   xmlns:svg="http://www.w3.org/2000/svg">
  <sodipodi:namedview
     id="namedview7391"
     pagecolor="#ffffff"
     bordercolor="#000000"
     borderopacity="0.25"
     inkscape:showpageshadow="2"
     inkscape:pageopacity="0.0"
     inkscape:pagecheckerboard="0"
     inkscape:deskcolor="#d1d1d1"
     inkscape:document-units="mm"
     showgrid="false"
     inkscape:zoom="0.5"
     inkscape:cx="534"
     inkscape:cy="218"
     inkscape:window-width="1920"
     inkscape:window-height="1046"
     inkscape:window-x="-11"
     inkscape:window-y="-11"
     inkscape:window-maximized="1"
     inkscape:current-layer="layer1" />
  <defs
     id="defs7386">
    <rect
       x="28.284271"
       y="48.08326"
       width="1125.714"
       height="193.74725"
       id="rect12265" />
  </defs>
  <g
     inkscape:label="Layer 1"
     inkscape:groupmode="layer"
     id="layer1">
    <path
       d="M 62.291775,48.300734 V 55.05712 H 39.485061 V 21.74438 h 22.39537 v 6.756386 H 46.980654 v 6.474872 h 12.797355 v 6.240274 H 46.980654 v 7.084822 z"
       id="path12319"
       style="font-weight:800;font-size:120px;font-family:Raleway;-inkscape-font-specification:'Raleway Ultra-Bold';text-align:center;text-anchor:middle;white-space:pre;fill:#009c94;stroke-width:0.385901" />
    <path
       d="m 77.288309,55.526314 q -3.062224,0 -5.438875,-1.032226 -2.376652,-1.032226 -4.067731,-2.815161 -1.645374,-1.782935 -2.513766,-4.081984 -0.868392,-2.299048 -0.868392,-4.879612 0,-3.378193 1.50826,-6.287193 1.553964,-2.909 4.433369,-4.691937 2.879405,-1.782935 6.947135,-1.782935 4.113436,0 6.947136,1.829855 2.879404,1.782937 4.296254,4.691936 l -7.129954,2.20521 q -0.685573,-1.126065 -1.782489,-1.736016 -1.051211,-0.609952 -2.376652,-0.609952 -1.508259,0 -2.74229,0.797629 -1.188326,0.797629 -1.919603,2.20521 -0.685573,1.40758 -0.685573,3.378193 0,1.923693 0.731278,3.378193 0.731277,1.4545 1.919603,2.299048 1.188326,0.797629 2.696585,0.797629 0.914097,0 1.691079,-0.281516 0.822688,-0.328435 1.462555,-0.891467 0.685573,-0.563033 1.051212,-1.266823 l 7.129954,2.252129 q -0.868392,1.876774 -2.513766,3.378193 -1.599669,1.4545 -3.793501,2.299048 -2.193833,0.844549 -4.981828,0.844549 z"
       id="path12321"
       style="font-weight:800;font-size:120px;font-family:Raleway;-inkscape-font-specification:'Raleway Ultra-Bold';text-align:center;text-anchor:middle;white-space:pre;fill:#009c94;stroke-width:0.385901" />
    <path
       d="m 114.99484,55.05712 h -7.31279 V 41.215912 q 0,-2.392887 -0.9598,-3.518952 -0.91411,-1.126064 -2.46808,-1.126064 -0.82269,0 -1.87391,0.563032 -1.00551,0.516113 -1.87391,1.501419 -0.868387,0.985307 -1.325444,2.299049 V 55.05712 H 91.868138 V 20.805993 h 7.312768 v 13.747371 q 1.325444,-2.20521 3.473584,-3.378195 2.19385,-1.219903 4.79904,-1.219903 2.46807,0 3.93063,0.844548 1.50826,0.844549 2.28524,2.252131 0.77698,1.360661 1.05121,3.002838 0.27423,1.642177 0.27423,3.237435 z"
       id="path12323"
       style="font-weight:800;font-size:120px;font-family:Raleway;-inkscape-font-specification:'Raleway Ultra-Bold';text-align:center;text-anchor:middle;white-space:pre;fill:#009c94;stroke-width:0.385901" />
    <path
       d="m 131.26575,55.526314 q -3.06223,0 -5.48458,-1.032226 -2.37666,-1.032226 -4.02203,-2.815161 -1.64537,-1.782935 -2.51377,-4.081984 -0.82268,-2.299048 -0.82268,-4.832693 0,-2.580564 0.82268,-4.879612 0.8684,-2.299048 2.51377,-4.081984 1.64537,-1.782935 4.02203,-2.815162 2.42235,-1.032226 5.48458,-1.032226 3.06222,0 5.43887,1.032226 2.37665,1.032227 4.02203,2.815162 1.64537,1.782936 2.51376,4.081984 0.8684,2.299048 0.8684,4.879612 0,2.533645 -0.8684,4.832693 -0.86839,2.299049 -2.51376,4.081984 -1.64538,1.782935 -4.02203,2.815161 -2.37665,1.032226 -5.43887,1.032226 z M 125.91828,42.76425 q 0,1.923694 0.68557,3.378194 0.73128,1.454499 1.91961,2.252128 1.18832,0.797629 2.74229,0.797629 1.50826,0 2.69658,-0.797629 1.23403,-0.844548 1.9196,-2.299048 0.68558,-1.4545 0.68558,-3.331274 0,-1.923693 -0.68558,-3.378193 -0.68557,-1.4545 -1.9196,-2.252129 -1.18832,-0.797629 -2.69658,-0.797629 -1.55397,0 -2.74229,0.797629 -1.18833,0.797629 -1.91961,2.252129 -0.68557,1.4545 -0.68557,3.378193 z"
       id="path12325"
       style="font-weight:800;font-size:120px;font-family:Raleway;-inkscape-font-specification:'Raleway Ultra-Bold';text-align:center;text-anchor:middle;white-space:pre;fill:#009c94;stroke-width:0.385901" />
    <path
       d="M 147.9023,55.05712 V 21.74438 h 14.62555 q 2.28524,0 4.20484,0.985306 1.96531,0.938387 3.38216,2.580564 1.41685,1.595258 2.19383,3.61279 0.82269,2.017532 0.82269,4.081985 0,2.064452 -0.63987,3.941226 -0.63987,1.829854 -1.82819,3.331274 -1.18833,1.4545 -2.8337,2.392887 l 7.12995,12.386708 h -8.27257 l -6.21586,-10.744531 h -5.07324 V 55.05712 Z m 7.49559,-17.453998 h 6.85573 q 0.91409,0 1.59967,-0.563033 0.73127,-0.609951 1.18832,-1.642177 0.45705,-1.032226 0.45705,-2.392887 0,-1.360662 -0.54846,-2.345969 -0.50275,-1.032226 -1.27973,-1.595258 -0.77698,-0.563032 -1.64538,-0.563032 h -6.6272 z"
       id="path12327"
       style="font-weight:800;font-size:120px;font-family:Raleway;-inkscape-font-specification:'Raleway Ultra-Bold';text-align:center;text-anchor:middle;white-space:pre;fill:#006a64;fill-opacity:1;stroke-width:0.385901" />
    <path
       d="m 188.56079,55.526314 q -3.06222,0 -5.43887,-0.985307 -2.37665,-1.032225 -4.06773,-2.768241 -1.64538,-1.736016 -2.51377,-3.988145 -0.86839,-2.299048 -0.86839,-4.785774 0,-3.565871 1.50826,-6.47487 1.55396,-2.955919 4.43337,-4.738856 2.8794,-1.829855 6.94713,-1.829855 4.06773,0 6.90143,1.782935 2.87941,1.782937 4.38767,4.691937 1.50826,2.86208 1.50826,6.240274 0,0.65687 -0.0914,1.313741 -0.0457,0.609952 -0.0914,1.079145 h -17.73348 q 0.13712,1.642178 0.86839,2.768242 0.77699,1.126065 1.96531,1.736016 1.18833,0.563032 2.51377,0.563032 1.64537,0 3.06222,-0.797629 1.46256,-0.797629 2.01101,-2.15829 l 6.21586,1.782936 q -0.91409,1.923693 -2.60517,3.425112 -1.64538,1.4545 -3.93062,2.299048 -2.23954,0.844549 -4.98183,0.844549 z m -5.30176,-15.061112 h 10.42071 q -0.18282,-1.548339 -0.8684,-2.674403 -0.68557,-1.172984 -1.82819,-1.782935 -1.14262,-0.656871 -2.51377,-0.656871 -1.41685,0 -2.55947,0.656871 -1.09691,0.609951 -1.78249,1.782935 -0.68557,1.126064 -0.86839,2.674403 z"
       id="path12329"
       style="font-weight:800;font-size:120px;font-family:Raleway;-inkscape-font-specification:'Raleway Ultra-Bold';text-align:center;text-anchor:middle;white-space:pre;fill:#006a64;fill-opacity:1;stroke-width:0.385901" />
    <path
       d="m 203.18635,47.690782 q 0,-2.439806 1.32544,-4.269661 1.32544,-1.829855 3.65638,-2.86208 2.33095,-1.079145 5.34747,-1.079145 1.46255,0 2.8794,0.281516 1.41685,0.234597 2.46806,0.70379 v -1.079145 q 0,-2.017532 -1.18832,-3.096677 -1.18833,-1.079145 -3.61068,-1.079145 -2.01102,0 -3.7935,0.70379 -1.73679,0.70379 -3.7021,2.017532 l -2.19383,-4.785774 q 2.37665,-1.595259 4.93612,-2.392888 2.60518,-0.797629 5.48458,-0.797629 5.39318,0 8.36399,2.674404 3.01652,2.627484 3.01652,7.647855 v 6.427951 q 0,1.126064 0.31993,1.595258 0.36564,0.422274 1.23403,0.516113 v 6.240273 q -0.91409,0.187678 -1.73678,0.281516 -0.77698,0.09384 -1.37115,0.09384 -2.05671,0 -3.15363,-0.844548 -1.05121,-0.844549 -1.32544,-2.299049 l -0.13711,-1.079145 q -1.59967,2.111371 -3.83921,3.237436 -2.19383,1.079145 -4.61619,1.079145 -2.37665,0 -4.29625,-1.032226 -1.8739,-1.032226 -2.97082,-2.815161 -1.09691,-1.782935 -1.09691,-3.988145 z m 14.53413,0.938387 q 0.50276,-0.422274 0.82269,-0.938387 0.31993,-0.516113 0.31993,-0.985306 v -2.20521 q -0.91409,-0.375355 -2.05671,-0.563032 -1.09692,-0.234597 -2.05672,-0.234597 -2.01101,0 -3.33645,0.938387 -1.32544,0.891468 -1.32544,2.392887 0,0.844549 0.45704,1.548339 0.45705,0.70379 1.23404,1.126064 0.82268,0.422274 1.9196,0.422274 1.09691,0 2.19383,-0.422274 1.09692,-0.422274 1.82819,-1.079145 z"
       id="path12331"
       style="font-weight:800;font-size:120px;font-family:Raleway;-inkscape-font-specification:'Raleway Ultra-Bold';text-align:center;text-anchor:middle;white-space:pre;fill:#006a64;fill-opacity:1;stroke-width:0.385901" />
    <path
       d="m 230.10651,42.717331 q 0,-3.61279 1.37115,-6.47487 1.37114,-2.909 3.74779,-4.598098 2.37665,-1.689097 5.48458,-1.689097 2.51377,0 4.57049,1.266822 2.05671,1.219905 3.10793,3.237437 V 20.805993 h 7.31277 v 25.899483 q 0,1.126064 0.36564,1.595258 0.36564,0.422274 1.18832,0.516113 v 6.240273 q -1.9196,0.375355 -3.10792,0.375355 -1.8739,0 -3.06223,-0.844548 -1.14262,-0.844549 -1.41685,-2.345968 l -0.13711,-1.266822 q -1.27974,2.299048 -3.47357,3.425112 -2.19383,1.126065 -4.61619,1.126065 -2.46806,0 -4.57048,-0.938387 -2.05672,-0.985307 -3.61069,-2.721323 -1.50826,-1.736016 -2.33094,-4.081983 -0.82269,-2.345968 -0.82269,-5.06729 z m 18.32764,3.049758 V 40.60596 q -0.45705,-1.266822 -1.32544,-2.205209 -0.82269,-0.938387 -1.9196,-1.50142 -1.05121,-0.563032 -2.14813,-0.563032 -1.18833,0 -2.19383,0.516113 -0.9598,0.516113 -1.69108,1.4545 -0.73128,0.891468 -1.14262,2.064451 -0.36564,1.172984 -0.36564,2.486726 0,1.360661 0.41134,2.533645 0.45705,1.126064 1.23403,2.017532 0.77699,0.844548 1.8282,1.313742 1.05121,0.469193 2.28524,0.469193 0.77698,0 1.50826,-0.234596 0.73128,-0.281517 1.37114,-0.703791 0.68558,-0.422274 1.23403,-1.079145 0.54846,-0.656871 0.9141,-1.40758 z"
       id="path12333"
       style="font-weight:800;font-size:120px;font-family:Raleway;-inkscape-font-specification:'Raleway Ultra-Bold';text-align:center;text-anchor:middle;white-space:pre;fill:#006a64;fill-opacity:1;stroke-width:0.385901" />
    <path
       d="m 272.8405,55.526314 q -3.06222,0 -5.43887,-0.985307 -2.37665,-1.032225 -4.06773,-2.768241 -1.64538,-1.736016 -2.51377,-3.988145 -0.86839,-2.299048 -0.86839,-4.785774 0,-3.565871 1.50826,-6.47487 1.55396,-2.955919 4.43337,-4.738856 2.8794,-1.829855 6.94713,-1.829855 4.06773,0 6.90143,1.782935 2.87941,1.782937 4.38767,4.691937 1.50826,2.86208 1.50826,6.240274 0,0.65687 -0.0914,1.313741 -0.0457,0.609952 -0.0914,1.079145 h -17.73348 q 0.13712,1.642178 0.86839,2.768242 0.77699,1.126065 1.96531,1.736016 1.18833,0.563032 2.51377,0.563032 1.64537,0 3.06222,-0.797629 1.46256,-0.797629 2.01101,-2.15829 l 6.21586,1.782936 q -0.91409,1.923693 -2.60517,3.425112 -1.64538,1.4545 -3.93062,2.299048 -2.23954,0.844549 -4.98183,0.844549 z m -5.30176,-15.061112 h 10.42071 q -0.18282,-1.548339 -0.8684,-2.674403 -0.68557,-1.172984 -1.82819,-1.782935 -1.14262,-0.656871 -2.51377,-0.656871 -1.41685,0 -2.55947,0.656871 -1.09691,0.609951 -1.78249,1.782935 -0.68557,1.126064 -0.86839,2.674403 z"
       id="path12335"
       style="font-weight:800;font-size:120px;font-family:Raleway;-inkscape-font-specification:'Raleway Ultra-Bold';text-align:center;text-anchor:middle;white-space:pre;fill:#006a64;fill-opacity:1;stroke-width:0.385901" />
    <path
       d="m 304.19404,36.852412 q -2.65088,0 -4.79901,0.891468 -2.14813,0.844548 -3.10793,2.533645 V 55.05712 h -7.31277 V 30.424459 h 6.71861 v 4.973453 q 1.23403,-2.486725 3.19934,-3.894307 1.9653,-1.407581 4.11343,-1.4545 0.50275,0 0.73128,0 0.27423,0 0.45705,0.04692 z"
       id="path12337"
       style="font-weight:800;font-size:120px;font-family:Raleway;-inkscape-font-specification:'Raleway Ultra-Bold';text-align:center;text-anchor:middle;white-space:pre;fill:#006a64;fill-opacity:1;stroke-width:0.385901" />
    <path
       style="fill:#00a09c;fill-opacity:1;stroke-width:3.29001"
       d="m 13.005174,33.594752 a 1.6638235,1.6264008 0 0 1 1.663803,1.626381 v 6.505644 a 1.6638235,1.6264008 0 0 1 -3.327607,0 v -6.505644 a 1.6638235,1.6264008 0 0 1 1.663804,-1.626381 z"
       id="path18338" />
    <path
       style="fill:#00a09c;fill-opacity:1;stroke-width:3.29001"
       d="m 19.660387,30.341992 a 1.6638235,1.6264008 0 0 1 1.663929,1.62638 v 13.011166 a 1.6638657,1.626442 0 0 1 -3.327731,0 V 31.968372 a 1.6638235,1.6264008 0 0 1 1.663802,-1.62638 z"
       id="path18334" />
    <path
       style="fill:#00a09c;fill-opacity:1;stroke-width:3.29001"
       d="m 26.315724,25.462727 a 1.6638235,1.6264008 0 0 1 1.663802,1.626381 v 22.769694 a 1.6638235,1.6264008 0 0 1 -3.327605,0 V 27.089108 a 1.6638235,1.6264008 0 0 1 1.663803,-1.626381 z"
       id="path18330" />
    <path
       style="fill:#00a09c;fill-opacity:1;stroke-width:3.29001"
       d="m 32.97106,18.957206 a 1.6638235,1.6264008 0 0 1 1.663803,1.62638 v 35.780737 a 1.6638235,1.6264008 0 0 1 -3.327605,0 V 20.583586 a 1.6638235,1.6264008 0 0 1 1.663802,-1.62638 z"
       id="path16366" />
    <path
       style="fill:#006a64;fill-opacity:1;stroke-width:3.29001"
       d="m 330.39329,33.224873 a 1.6638235,1.6264008 0 0 1 1.6638,1.626381 v 6.505644 a 1.6638235,1.6264008 0 0 1 -3.3276,0 v -6.505644 a 1.6638235,1.6264008 0 0 1 1.6638,-1.626381 z"
       id="path18340-8" />
    <path
       style="fill:#006a64;fill-opacity:1;stroke-width:3.29001"
       d="m 323.73795,29.972113 a 1.6638235,1.6264008 0 0 1 1.6638,1.62638 v 13.011166 a 1.6638235,1.6264008 0 0 1 -3.3276,0 V 31.598493 a 1.6638235,1.6264008 0 0 1 1.6638,-1.62638 z"
       id="path18336-8" />
    <path
       style="fill:#006a64;fill-opacity:1;stroke-width:3.29001"
       d="m 317.08262,25.092848 a 1.6638235,1.6264008 0 0 1 1.66392,1.626381 v 22.769694 a 1.6638655,1.6264418 0 0 1 -3.32773,0 V 26.719229 a 1.6638235,1.6264008 0 0 1 1.66381,-1.626381 z"
       id="path18332-2" />
    <path
       style="fill:#006a64;fill-opacity:1;stroke-width:3.29001"
       d="m 310.4274,18.587327 a 1.6638235,1.6264008 0 0 1 1.66381,1.62638 v 35.780737 a 1.6638235,1.6264008 0 0 1 -3.32761,0 V 20.213707 a 1.6638235,1.6264008 0 0 1 1.6638,-1.62638 z"
       id="path16366-6" />
  </g>
</svg>
