<?xml version="1.0" encoding="UTF-8" standalone="no"?>
<!-- Created with Inkscape (http://www.inkscape.org/) -->

<svg
   width="300"
   height="300"
   viewBox="0 0 79.374998 79.374998"
   version="1.1"
   id="svg21361"
   inkscape:version="1.2.2 (732a01da63, 2022-12-09)"
   sodipodi:docname="echoreaderlogo.svg"
   xmlns:inkscape="http://www.inkscape.org/namespaces/inkscape"
   xmlns:sodipodi="http://sodipodi.sourceforge.net/DTD/sodipodi-0.dtd"
   xmlns="http://www.w3.org/2000/svg"
   xmlns:svg="http://www.w3.org/2000/svg">
  <sodipodi:namedview
     id="namedview21363"
     pagecolor="#ffffff"
     bordercolor="#000000"
     borderopacity="0.25"
     inkscape:showpageshadow="2"
     inkscape:pageopacity="0.0"
     inkscape:pagecheckerboard="0"
     inkscape:deskcolor="#d1d1d1"
     inkscape:document-units="mm"
     showgrid="false"
     inkscape:zoom="2"
     inkscape:cx="118.5"
     inkscape:cy="192.5"
     inkscape:window-width="1920"
     inkscape:window-height="1046"
     inkscape:window-x="-11"
     inkscape:window-y="-11"
     inkscape:window-maximized="1"
     inkscape:current-layer="layer1" />
  <defs
     id="defs21358" />
  <g
     inkscape:label="Layer 1"
     inkscape:groupmode="layer"
     id="layer1">
    <path
       style="fill:#00a09c;fill-opacity:1;stroke-width:3.29001"
       d="m 16.195868,35.049258 a 1.6638235,1.6264008 0 0 1 1.66381,1.626381 v 6.505644 a 1.6638235,1.6264008 0 0 1 -3.32761,0 v -6.505644 a 1.6638235,1.6264008 0 0 1 1.6638,-1.626381 z"
       id="path18338" />
    <path
       style="fill:#00a09c;fill-opacity:1;stroke-width:3.29001"
       d="m 22.851073,31.796498 a 1.6638235,1.6264008 0 0 1 1.663929,1.62638 v 13.011166 a 1.6638657,1.626442 0 0 1 -3.327731,0 V 33.422878 a 1.6638235,1.6264008 0 0 1 1.663802,-1.62638 z"
       id="path18334" />
    <path
       style="fill:#00a09c;fill-opacity:1;stroke-width:3.29001"
       d="m 29.50641,26.917233 a 1.6638235,1.6264008 0 0 1 1.663802,1.626381 v 22.769694 a 1.6638235,1.6264008 0 0 1 -3.327605,0 V 28.543614 a 1.6638235,1.6264008 0 0 1 1.663803,-1.626381 z"
       id="path18330" />
    <path
       style="fill:#00a09c;fill-opacity:1;stroke-width:3.29001"
       d="m 36.161746,20.411712 a 1.6638235,1.6264008 0 0 1 1.663803,1.62638 v 35.780737 a 1.6638235,1.6264008 0 0 1 -3.327605,0 V 22.038092 a 1.6638235,1.6264008 0 0 1 1.663802,-1.62638 z"
       id="path16366" />
    <path
       style="fill:#006a64;fill-opacity:1;stroke-width:3.29001"
       d="m 62.882816,35.049623 a 1.6638235,1.6264008 0 0 1 1.6638,1.626381 v 6.505644 a 1.6638235,1.6264008 0 0 1 -3.3276,0 v -6.505644 a 1.6638235,1.6264008 0 0 1 1.6638,-1.626381 z"
       id="path18340-8" />
    <path
       style="fill:#006a64;fill-opacity:1;stroke-width:3.29001"
       d="m 56.227476,31.796863 a 1.6638235,1.6264008 0 0 1 1.6638,1.62638 v 13.011166 a 1.6638235,1.6264008 0 0 1 -3.3276,0 V 33.423243 a 1.6638235,1.6264008 0 0 1 1.6638,-1.62638 z"
       id="path18336-8" />
    <path
       style="fill:#006a64;fill-opacity:1;stroke-width:3.29001"
       d="m 49.572146,26.917598 a 1.6638235,1.6264008 0 0 1 1.66392,1.626381 v 22.769694 a 1.6638655,1.6264418 0 0 1 -3.32773,0 V 28.543979 a 1.6638235,1.6264008 0 0 1 1.66381,-1.626381 z"
       id="path18332-2" />
    <path
       style="fill:#006a64;fill-opacity:1;stroke-width:3.29001"
       d="m 42.916926,20.412077 a 1.6638235,1.6264008 0 0 1 1.66381,1.62638 v 35.780737 a 1.6638235,1.6264008 0 0 1 -3.32761,0 V 22.038457 a 1.6638235,1.6264008 0 0 1 1.6638,-1.62638 z"
       id="path16366-6" />
  </g>
</svg>
